# xmcd
#
# Track frame offsets:
#	187
#	18272
#	35494
#	61084
#
# Disc length: 1120 seconds
#
# Revision: 1
# Processed by: cddbd v1.5.1PL0 Copyright (c) Steve Scherf et al.
# Submitted via: CDex 1.50Beta5
#
DISCID=26045e04
DTITLE=吉川晃司 - I WRITE THE SONG
DYEAR=1900
DGENRE=Pop
TTITLE0=星の降る夜に
TTITLE1=冬の夜
TTITLE2=終わらないSun Set〜Winter1997
TTITLE3=Merry Christmas To You
EXTD=
EXTT0=
EXTT1=
EXTT2=
EXTT3=
PLAYORDER=
